<?xml version="1.0" encoding="UTF-8"?>
<svg viewBox="0 0 42 48" version="1.1" xmlns="http://www.w3.org/2000/svg" xmlns:xlink="http://www.w3.org/1999/xlink">
    <!-- Generator: Sketch 49.2 (51160) - http://www.bohemiancoding.com/sketch -->
    <title>Shopify</title>
    <desc>Created with Sketch.</desc>
    <defs></defs>
    <g id="Page-1" stroke="none" stroke-width="1" fill="none" fill-rule="evenodd">
        <g id="Social-Icons---Isolated" transform="translate(-55.000000, -1063.000000)" fill="#81BF37">
            <path d="M84.2870868,1110.55497 L85.8471001,1069.99462 C86.6336569,1070.77951 87.5250364,1071.6685 87.5250364,1071.6685 C87.5250364,1071.6685 91.1953161,1071.9415 91.3684566,1071.9565 C91.5430897,1071.9715 91.7535449,1072.105 91.7863819,1072.3465 C91.8192189,1072.588 97,1107.7915 97,1107.7915 L84.2870868,1110.55497 Z M82.2687335,1110.9937 L82.239774,1111 L55,1105.8715 C55,1105.8715 58.4956466,1078.702 58.6284872,1077.7435 C58.8031202,1076.479 58.8449128,1076.437 60.1822737,1076.0155 C60.3986993,1075.9465 62.0987597,1075.417 64.4928747,1074.6715 C65.4152955,1070.74 68.3586837,1063 74.5186041,1063 C75.3231103,1063 76.2544867,1063.435 77.0067522,1064.434 C77.0813817,1064.4295 77.1575038,1064.4265 77.2306407,1064.4265 C79.8740183,1064.4265 81.3770568,1066.69 82.2293258,1069.153 C83.099506,1068.883 83.6248978,1068.7195 83.6562422,1068.7105 C83.7150176,1068.69303 83.7995042,1068.67383 83.8969062,1068.66121 L82.2687335,1110.9937 Z M76.8052525,1070.572 C76.8052525,1068.7255 76.5574825,1067.356 76.1798571,1066.402 C74.6768187,1067.05 72.9588472,1068.7675 72.0423967,1072.3225 C73.6752905,1071.814 75.3037066,1071.307 76.8037599,1070.8405 C76.8037599,1070.7535 76.8052525,1070.6665 76.8052525,1070.572 Z M74.3484488,1064.6605 C69.924411,1064.6605 67.439248,1070.4985 66.3929422,1074.0805 C67.5735812,1073.713 68.8497459,1073.3155 70.1557625,1072.909 C71.0498241,1068.214 73.1648246,1065.862 75.1395217,1064.929 C74.8827961,1064.752 74.6156224,1064.6605 74.3484488,1064.6605 Z M75.4096805,1085.593 L77.2306407,1080.1525 C77.2306407,1080.1525 75.9992537,1079.4355 73.509613,1079.4355 C67.0466968,1079.4355 63.8450904,1083.7735 63.8450904,1088.2555 C63.8450904,1093.582 69.1333381,1093.7275 69.1333381,1096.969 C69.1333381,1097.752 68.5810796,1098.8245 67.2273002,1098.8245 C65.1525996,1098.8245 62.6943033,1096.7035 62.6943033,1096.7035 L61.44202,1100.86 C61.44202,1100.86 63.8331497,1103.785 68.5094353,1103.785 C72.4065887,1103.785 75.2962436,1100.836 75.2962436,1096.258 C75.2962436,1090.438 68.8512385,1089.4855 68.8512385,1087 C68.8512385,1086.5455 68.9960198,1084.738 71.8617932,1084.738 C73.815594,1084.738 75.4096805,1085.593 75.4096805,1085.593 Z M78.4187427,1070.338 C79.2620562,1070.0755 80.0396958,1069.834 80.7233022,1069.621 C80.1396993,1067.8285 79.2322044,1066.27 77.8694694,1066.099 C78.2082874,1067.0755 78.4202353,1068.3085 78.4202353,1069.8385 C78.4202353,1070.014 78.4187427,1070.1745 78.4187427,1070.338 Z" id="Shopify"></path>
        </g>
    </g>
</svg>